<?xml version="1.0" standalone="no"?>
<!DOCTYPE svg PUBLIC "-//W3C//DTD SVG 20010904//EN"
 "http://www.w3.org/TR/2001/REC-SVG-20010904/DTD/svg10.dtd">
<svg version="1.0" xmlns="http://www.w3.org/2000/svg"
 width="860.000000pt" height="1000.000000pt" viewBox="0 0 860.000000 1000.000000"
 preserveAspectRatio="xMidYMid meet">

<g transform="translate(0.000000,1000.000000) scale(0.100000,-0.100000)"
fill="#000000" stroke="none">
<path d="M5915 9729 c-38 -5 -87 -15 -110 -21 -22 -6 -43 -11 -47 -10 -5 1 -8
-2 -8 -8 0 -5 5 -10 11 -10 5 0 8 -4 4 -9 -3 -6 8 -5 27 0 54 17 355 23 449
10 101 -15 269 -69 358 -116 35 -19 69 -32 74 -28 6 3 7 1 3 -5 -4 -6 13 -22
41 -38 105 -59 241 -218 297 -345 20 -46 22 -56 9 -55 -33 2 -37 -28 -9 -72
14 -23 21 -42 15 -42 -6 0 -8 -7 -5 -16 3 -8 2 -12 -4 -9 -6 3 -10 1 -10 -5 0
-12 -24 -40 -35 -40 -3 0 -3 5 1 12 4 7 3 8 -4 4 -7 -4 -12 -13 -12 -21 0 -8
-4 -16 -9 -19 -5 -3 -8 2 -7 11 1 14 -9 17 -51 17 -40 1 -56 6 -67 21 -20 26
-16 37 19 54 22 10 36 11 64 2 28 -8 39 -8 49 3 12 11 8 18 -22 41 -20 15 -36
36 -36 47 0 15 -4 18 -17 13 -10 -5 -28 -9 -40 -10 -13 -1 -25 -4 -27 -6 -11
-11 -15 -68 -6 -74 17 -10 2 -24 -20 -18 -12 3 -20 0 -20 -6 0 -7 -5 -9 -11
-5 -8 4 -8 0 0 -15 22 -40 -12 -22 -47 24 -18 25 -38 45 -44 45 -7 0 -22 10
-35 22 -13 12 -26 18 -30 14 -5 -4 11 -25 33 -46 44 -41 59 -66 44 -75 -6 -4
-10 0 -10 8 0 8 -12 23 -27 32 -16 10 -40 29 -55 42 -24 23 -28 24 -48 10 -12
-8 -30 -13 -41 -10 -12 3 -19 0 -19 -9 0 -7 -9 -22 -21 -31 -11 -10 -18 -24
-16 -32 3 -7 -2 -20 -11 -28 -21 -17 -70 -28 -78 -16 -3 5 -14 9 -25 9 -10 0
-19 6 -20 13 0 6 -1 34 -2 60 l-3 49 53 -7 c52 -6 53 -6 53 19 0 17 -10 33
-30 48 -41 30 -59 31 -66 2 -5 -18 -13 -24 -34 -24 -17 0 -40 -11 -58 -27 -37
-36 -74 -63 -84 -63 -4 0 -8 -7 -8 -15 0 -8 -7 -15 -15 -15 -21 0 -73 -27 -99
-52 -25 -23 -90 -58 -108 -58 -7 0 -19 -9 -26 -20 -7 -11 -19 -20 -27 -20 -8
0 -15 -4 -15 -8 0 -5 -18 -15 -40 -22 -22 -7 -40 -16 -40 -20 0 -7 -109 -35
-123 -32 -4 1 -15 -4 -23 -13 -10 -9 -34 -15 -66 -15 -27 0 -76 -7 -107 -15
-67 -17 -104 -16 -96 3 3 8 0 10 -6 6 -7 -4 -9 1 -7 12 2 11 11 18 21 18 9 -1
14 2 12 7 -3 4 3 12 12 18 10 5 15 12 12 15 -3 4 -26 -11 -50 -33 -41 -36 -43
-40 -30 -63 14 -28 12 -70 -5 -75 -12 -4 -36 51 -27 61 8 8 -44 26 -70 25 -12
-1 -2 -6 23 -11 37 -9 41 -12 25 -19 -27 -10 -43 -11 -27 0 9 5 -5 10 -40 15
-48 6 -55 4 -75 -19 -25 -29 -31 -102 -13 -149 14 -37 50 -34 72 4 11 20 22
28 32 24 11 -4 13 -11 7 -22 -4 -10 -11 -32 -14 -49 -6 -31 -5 -33 23 -33 16
0 32 -5 35 -11 9 -14 7 -15 -36 -23 -28 -5 -42 -2 -65 16 -15 13 -41 24 -57
24 -38 2 -77 42 -88 90 -9 44 -51 166 -55 162 -1 -2 2 -25 7 -52 5 -27 7 -51
5 -54 -9 -9 -25 77 -34 187 -8 90 -7 122 3 152 12 32 12 43 1 64 -14 26 -14
25 -39 -42 -25 -67 -58 -174 -62 -203 -21 -127 -25 -169 -25 -250 0 -52 4
-100 8 -106 11 -18 42 -30 127 -53 102 -28 109 -30 103 -36 -2 -3 -53 9 -111
25 -59 17 -110 30 -113 30 -9 0 3 -102 15 -134 11 -29 33 -32 300 -41 162 -6
164 -6 158 14 -7 28 13 78 35 88 12 6 15 12 9 22 -7 11 -13 12 -23 4 -19 -16
-50 0 -81 40 -32 42 -33 47 -8 47 12 0 22 -9 27 -22 11 -38 32 -56 59 -50 17
3 27 -1 31 -12 3 -9 9 -14 14 -11 4 2 5 -6 3 -19 -3 -13 1 -27 7 -31 9 -5 10
-1 5 15 -7 21 -5 22 52 15 63 -7 105 -23 97 -37 -3 -4 3 -8 13 -8 10 0 26 -9
36 -20 9 -11 29 -20 46 -20 15 0 40 -10 55 -21 23 -18 36 -21 81 -15 31 3 56
2 60 -3 3 -6 -20 -11 -54 -13 -95 -5 -61 -24 64 -37 61 -7 124 -16 140 -21 17
-5 163 -11 325 -14 263 -6 328 -4 600 19 168 14 325 29 350 33 l45 7 17 70
c50 197 45 451 -12 626 -16 51 -30 98 -30 104 0 21 -94 201 -143 275 -64 96
-231 262 -327 327 -142 95 -302 163 -471 198 -91 20 -310 27 -404 14z m955
-669 c0 -5 -2 -10 -4 -10 -3 0 -8 5 -11 10 -3 6 -1 10 4 10 6 0 11 -4 11 -10z
m184 -16 c3 -8 2 -12 -4 -9 -6 3 -10 10 -10 16 0 14 7 11 14 -7z m-474 -69 c0
-8 -2 -15 -4 -15 -2 0 -6 7 -10 15 -3 8 -1 15 4 15 6 0 10 -7 10 -15z m-1640
-25 c0 -5 -7 -7 -15 -4 -8 4 -12 10 -9 15 6 11 24 2 24 -11z m1727 -26 c-3 -3
-12 -4 -19 -1 -8 3 -5 6 6 6 11 1 17 -2 13 -5z m-62 -39 c1 -25 6 -31 35 -40
19 -6 50 -18 68 -28 31 -17 58 -15 47 3 -10 17 16 21 45 8 30 -13 43 -35 14
-24 -8 3 -12 2 -9 -4 8 -13 -16 -80 -30 -80 -10 -1 -75 -56 -75 -64 0 -10 -55
-61 -63 -58 -4 1 -10 -6 -14 -15 -4 -10 -9 -20 -13 -23 -3 -3 -16 -20 -29 -37
-12 -18 -28 -33 -35 -33 -23 0 -69 -57 -63 -79 3 -12 -2 -26 -10 -33 -12 -10
-18 -9 -29 7 -11 14 -14 15 -14 4 0 -8 -15 -20 -33 -27 -41 -15 -50 -15 -42
-2 3 5 0 7 -8 4 -24 -9 -139 114 -145 155 -2 13 1 35 6 50 5 15 6 36 1 49 -11
30 38 131 75 156 14 9 26 23 26 31 0 9 10 31 22 49 19 29 30 35 68 40 25 3 68
9 95 14 28 6 64 9 80 8 26 -1 30 -5 30 -31z m-1269 -351 c18 -9 38 -22 45 -30
9 -11 7 -14 -15 -14 -15 0 -25 4 -22 9 7 10 -50 36 -76 34 -10 -1 -18 2 -18 8
0 14 49 11 86 -7z m128 -50 c29 -11 17 -19 -32 -20 -26 -1 -39 0 -29 3 9 2 15
9 12 14 -7 10 25 12 49 3z m1023 -290 c-3 -3 -12 -4 -19 -1 -8 3 -5 6 6 6 11
1 17 -2 13 -5z m-80 -10 c-3 -3 -12 -4 -19 -1 -8 3 -5 6 6 6 11 1 17 -2 13 -5z
m-74 -11 c-7 -2 -19 -2 -25 0 -7 3 -2 5 12 5 14 0 19 -2 13 -5z m-14 -19 c9
-8 -105 -2 -124 7 -13 6 4 7 50 3 39 -4 72 -8 74 -10z m-211 -1 c-10 -2 -26
-2 -35 0 -10 3 -2 5 17 5 19 0 27 -2 18 -5z m570 0 c-10 -2 -26 -2 -35 0 -10
3 -2 5 17 5 19 0 27 -2 18 -5z m-690 -10 c-10 -2 -26 -2 -35 0 -10 3 -2 5 17
5 19 0 27 -2 18 -5z"/>
<path d="M6460 8390 c-9 -6 -10 -10 -3 -10 6 0 15 5 18 10 8 12 4 12 -15 0z"/>
<path d="M5710 9670 c0 -5 4 -10 9 -10 6 0 13 5 16 10 3 6 -1 10 -9 10 -9 0
-16 -4 -16 -10z"/>
<path d="M5315 9451 c-3 -5 0 -13 6 -17 7 -4 9 -3 5 4 -3 5 0 13 6 15 9 4 10
6 1 6 -6 1 -14 -3 -18 -8z"/>
<path d="M6591 9343 c18 -29 31 -34 66 -22 l28 9 -30 -4 c-21 -3 -37 2 -54 17
l-24 22 14 -22z"/>
<path d="M6477 9299 c-9 -5 -23 -7 -30 -3 -9 5 -9 4 -1 -5 9 -10 18 -10 40 3
16 8 25 15 19 15 -5 0 -18 -4 -28 -10z"/>
<path d="M6510 9286 c0 -2 8 -10 18 -17 15 -13 16 -12 3 4 -13 16 -21 21 -21
13z"/>
<path d="M6596 9263 c1 -29 26 -43 39 -23 5 8 -28 50 -39 50 -1 0 -1 -12 0
-27z"/>
<path d="M6565 9250 c-4 -6 -10 -8 -15 -5 -5 3 -11 1 -15 -5 -4 -6 6 -10 23
-10 19 0 29 5 29 15 0 17 -13 20 -22 5z"/>
<path d="M6464 9225 c-4 -8 -15 -15 -26 -15 -10 0 -17 -4 -14 -9 10 -15 44 -1
49 20 6 23 -1 26 -9 4z"/>
<path d="M6490 9231 c0 -6 4 -13 10 -16 6 -3 7 1 4 9 -7 18 -14 21 -14 7z"/>
<path d="M6326 9222 c-2 -4 4 -8 14 -8 10 0 16 4 14 8 -3 4 -9 8 -14 8 -5 0
-11 -4 -14 -8z"/>
<path d="M6293 9183 c-13 -2 -23 -9 -23 -14 0 -11 39 -2 55 12 9 9 7 10 -32 2z"/>
<path d="M6340 9169 c0 -5 5 -7 10 -4 6 3 10 8 10 11 0 2 -4 4 -10 4 -5 0 -10
-5 -10 -11z"/>
<path d="M6350 9150 c-17 -6 -9 -7 25 -3 28 3 52 7 54 9 8 7 -54 2 -79 -6z"/>
<path d="M5685 9060 c-3 -5 -26 -10 -51 -10 -40 0 -104 -22 -104 -36 0 -2 13
2 30 11 16 8 47 15 68 15 22 0 53 7 68 15 18 9 23 15 12 15 -9 0 -20 -4 -23
-10z"/>
<path d="M5670 8997 c3 -3 21 -7 40 -8 19 -2 38 -8 42 -13 4 -6 10 -7 14 -3
13 12 -4 20 -53 25 -27 2 -46 2 -43 -1z"/>
<path d="M5603 8940 c-24 -10 -43 -21 -43 -24 0 -4 90 32 99 40 11 10 -18 2
-56 -16z"/>
<path d="M5523 8935 c-18 -8 -33 -16 -33 -19 0 -6 51 14 65 26 13 11 5 10 -32
-7z"/>
<path d="M5465 8883 c-31 -7 -40 -21 -11 -16 15 3 29 9 32 14 3 5 4 8 2 8 -2
-1 -12 -3 -23 -6z"/>
<path d="M7528 8743 c6 -2 18 -2 25 0 6 3 1 5 -13 5 -14 0 -19 -2 -12 -5z"/>
<path d="M4860 8111 c0 -16 25 -28 75 -35 27 -3 63 -11 80 -16 16 -5 48 -12
69 -15 28 -5 35 -9 26 -15 -20 -12 30 -30 102 -37 32 -3 55 -9 53 -13 -5 -9
19 -20 42 -20 14 0 14 2 -1 19 -10 11 -16 30 -14 43 3 23 -24 58 -46 58 -6 0
-81 9 -166 20 -170 22 -220 24 -220 11z"/>
<path d="M3403 8038 c-46 -22 -73 -123 -98 -353 -68 -634 -214 -1134 -553
-1885 -414 -918 -486 -1063 -579 -1161 -30 -31 -126 -107 -215 -169 -189 -133
-340 -250 -684 -530 -138 -113 -287 -233 -332 -268 -115 -90 -162 -158 -162
-237 0 -53 20 -92 117 -233 93 -133 152 -225 198 -305 l27 -48 -31 -64 c-44
-88 -50 -151 -20 -189 23 -29 23 -29 123 -14 14 2 30 -16 63 -72 86 -144 162
-214 318 -292 169 -85 228 -142 305 -298 42 -85 72 -116 132 -136 113 -37 200
33 214 174 5 48 2 69 -20 123 -14 36 -26 69 -26 73 0 4 36 -21 80 -56 152
-120 149 -118 199 -118 133 0 185 132 121 305 -17 46 -37 74 -85 121 l-62 61
38 -11 c51 -13 107 2 132 36 45 61 10 219 -65 291 -42 40 -250 146 -368 187
-119 42 -354 37 -503 -11 -34 -11 -91 -22 -127 -26 l-65 -6 3 46 c3 39 0 50
-23 72 -22 23 -31 26 -63 20 -20 -3 -56 -17 -78 -30 l-41 -24 -50 37 c-93 70
-162 134 -217 201 -53 64 -106 160 -106 190 0 27 54 93 130 158 157 136 723
483 812 498 33 6 51 2 101 -23 34 -17 62 -30 63 -29 0 1 21 63 47 137 65 194
75 213 95 204 134 -57 450 -143 640 -174 l73 -12 33 -67 c149 -295 472 -523
830 -586 130 -22 353 -20 477 5 250 51 479 175 640 347 83 89 122 144 180 258
l46 90 204 41 c112 23 247 53 300 68 53 14 99 26 102 26 3 0 31 -79 63 -175
l56 -176 28 60 c45 94 98 167 273 371 229 266 260 324 358 653 l32 107 50 0
c79 0 174 20 192 40 16 17 15 20 -4 39 -11 11 -52 30 -91 42 -38 11 -70 25
-70 29 0 5 20 29 44 54 29 29 80 63 146 96 124 62 189 120 231 206 26 53 33
83 42 181 14 152 11 262 -8 337 -19 72 -37 102 -75 124 -25 15 -27 18 -18 51
17 62 4 163 -27 217 -39 67 -78 100 -165 143 -68 32 -83 36 -155 35 -92 0
-158 -25 -201 -77 -25 -30 -27 -30 -40 -12 -21 28 -54 122 -69 195 -16 75 -39
289 -32 296 3 3 49 14 103 25 384 79 732 358 890 714 l25 58 -38 -7 c-199 -33
-493 -54 -663 -47 l-105 4 80 11 c44 6 80 16 80 21 0 13 -116 21 -440 29 -236
6 -268 5 -252 -7 16 -13 16 -15 1 -21 -8 -3 -29 -6 -45 -6 -16 0 -29 -4 -29
-10 0 -5 -7 -10 -15 -10 -8 0 -15 -4 -15 -10 0 -5 -11 -12 -25 -16 -14 -3 -25
-10 -25 -15 0 -5 -9 -9 -20 -9 -11 0 -20 -4 -20 -9 0 -10 -98 -24 -157 -23
-24 1 -43 -3 -43 -8 0 -6 -10 -10 -21 -10 -16 0 -20 -5 -17 -18 4 -15 1 -18
-18 -14 -13 2 -24 9 -24 14 0 5 -4 7 -9 4 -4 -3 -17 4 -27 14 -58 61 -39 56
-262 63 -113 3 -208 4 -210 2 -2 -2 13 -34 34 -70 125 -225 335 -420 568 -531
89 -42 231 -88 309 -101 l39 -6 -9 -56 c-12 -84 -10 -389 5 -531 23 -221 41
-298 92 -381 l29 -47 -157 -6 c-312 -11 -401 -32 -449 -105 -29 -43 -29 -83
-1 -132 40 -72 101 -100 273 -125 171 -25 214 -50 330 -198 72 -91 117 -136
193 -190 29 -21 57 -46 62 -56 8 -15 3 -18 -51 -23 -63 -6 -109 -28 -109 -53
0 -19 87 -60 158 -75 l52 -10 0 -68 c0 -145 -57 -280 -164 -387 -94 -95 -156
-124 -336 -163 -79 -17 -147 -27 -151 -23 -13 13 -190 481 -254 670 -65 192
-114 322 -253 662 -145 356 -263 597 -437 895 -305 522 -656 926 -969 1113
-131 79 -284 125 -333 100z m1050 -2696 c48 -21 104 -74 118 -109 12 -31 12
-85 0 -116 -6 -14 -26 -38 -46 -53 -33 -25 -45 -28 -123 -29 -91 -2 -128 9
-195 59 -38 28 -71 84 -69 115 3 42 26 111 36 111 5 0 17 7 27 16 42 38 174
41 252 6z"/>
<path d="M5813 8033 c9 -2 25 -2 35 0 9 3 1 5 -18 5 -19 0 -27 -2 -17 -5z"/>
<path d="M5855 8010 c-3 -5 3 -10 15 -10 12 0 18 5 15 10 -3 6 -10 10 -15 10
-5 0 -12 -4 -15 -10z"/>
</g>
</svg>
